<svg xmlns="http://www.w3.org/2000/svg" xmlns:xlink="http://www.w3.org/1999/xlink" version="1.1" x="0px" y="0px" viewBox="0 0 104.3300018 92.5" style="enable-background:new 0 0 104.3300018 74;" xml:space="preserve"><title>Asset 1</title><g><g><path d="M16.7299995,37.2700005h27.8699989c0.8477554,0,1.5349998-0.6872444,1.5349998-1.5349998    s-0.6872444-1.5349998-1.5349998-1.5349998H16.7299995c-0.8477573,0-1.5349998,0.6872444-1.5349998,1.5349998    S15.8822422,37.2700005,16.7299995,37.2700005z"/><path d="M16.7299995,49.9300003h27.8699989c0.8477554,0,1.5349998-0.6872444,1.5349998-1.5349998    s-0.6872444-1.5349998-1.5349998-1.5349998H16.7299995c-0.8477573,0-1.5349998,0.6872444-1.5349998,1.5349998    S15.8822422,49.9300003,16.7299995,49.9300003z"/><path d="M16.7299995,62.5999985h27.8699989c0.8477554,0,1.5349998-0.6872444,1.5349998-1.5349998    s-0.6872444-1.5349998-1.5349998-1.5349998H16.7299995c-0.8477573,0-1.5349998,0.6872444-1.5349998,1.5349998    S15.8822422,62.5999985,16.7299995,62.5999985z"/><path d="M89.6800003,42.1699982L89.6800003,42.1699982l-5-5c-0.6060791-0.5647659-1.5552368-0.5312729-2.1200027,0.0748062    c-0.5367889,0.5760651-0.5367889,1.4691277,0,2.0451927L85,41.7299995H56.2700005v-7.5400009h9.0000038l-2.4099998,2.4099998    c-0.6060944,0.5647469-0.6396103,1.5139046-0.0748634,2.1199989s1.5139008,0.6396103,2.1200027,0.0748634    c0.0258255-0.0240669,0.0507965-0.0490341,0.0748596-0.0748634l5-5l0,0c0.5849075-0.5856361,0.5849075-1.5343628,0-2.1199989l0,0    l-5-5c-0.6060944-0.5647488-1.5552521-0.5312309-2.1199989,0.0748634c-0.5367584,0.5760555-0.5367584,1.46908,0,2.0451355    l2.4099998,2.4099998h-9v-6.7999973c-0.005455-0.8427258-0.6872749-1.5245457-1.5299988-1.5300007h-2.4300041L49.9199982,1.36    C49.8334427,0.5858152,49.1790085,0.0002696,48.4000015,0h-6.3300018c-0.7790108,0.0002677-1.433445,0.5858138-1.5200005,1.36    l-2.3899994,21.4399986h-3.5900002L32.1899986,1.36C32.1034431,0.5858144,31.4490089,0.0002687,30.6700001,0h-6.3400002    c-0.7790089,0.0002677-1.4334431,0.5858138-1.5200005,1.36l-2.3799992,21.4399986H6.5999999    c-0.8427262,0.005455-1.5245457,0.6872749-1.5300002,1.5300007v46.5999985H1.53    c-0.847757,0-1.5349998,0.6872406-1.5349998,1.534996C-0.0049999,73.3127594,0.682243,74,1.53,74h81.0699997    c0.8477554,0,1.534996-0.6872406,1.534996-1.5350037c0-0.8477554-0.6872406-1.534996-1.534996-1.534996h-3.5299988v-6.8600006    c-0.0328445-7.1329155-5.8070831-12.9071541-12.9400024-12.9399986h-9.8599968v-6.4000015H85l-2.4100037,2.4099998    c-0.6060791,0.5647659-0.6395721,1.5139198-0.0748062,2.1200027c0.5647659,0.6060791,1.5139236,0.6395683,2.1200027,0.0748062    c0.0258026-0.0240479,0.0507584-0.0489998,0.0748062-0.07481l5-5l0,0c0.5849075-0.5856361,0.5849075-1.5343628,0-2.1199989    L89.6800003,42.1699982z M43.4399986,3.0699999H47l2.2200012,19.7299995h-8L43.4399986,3.0699999z M25.7099991,3.0699999    h3.5900002l2.1900005,19.7299995h-8L25.7099991,3.0699999z M53.2000008,70.9300003H8.1300001V25.8700008h45.0699997V70.9300003z     M65.8700027,70.9300003h-9.5999985v-6.5999985h7.3299942c1.253685,0,2.2699966,1.0163116,2.2699966,2.2699966    L65.8700027,70.9300003z M66.1399994,54.2000008C71.5848618,54.2110214,75.9944992,58.6251297,76,64.0699997v6.8700027h-7.0699997    v-4.340004c-0.0055008-2.9413948-2.3886032-5.324501-5.3300018-5.3300018h-7.329998v-7.0699959H66.1399994z"/><path d="M74.1699982,32.7799988l2.3399963-0.3800011l-2.1900024,3.8800011    c-0.4086914,0.7207336-0.1557312,1.6363106,0.5650024,2.045002c0.7207336,0.4086876,1.6363068,0.1557312,2.0449982-0.5650024    l3.7399979-6.6000004c0.4088058-0.7205353,0.1560898-1.6360455-0.5644455-2.0448475    c-0.2987747-0.1695118-0.6466751-0.2313404-0.9855576-0.1751518l-2.3899994,0.3899994l2.0800018-3.7999992    c0.3740234-0.7391891,0.0779953-1.6416225-0.6611938-2.0156441c-0.7054214-0.3569355-1.5667801-0.1050892-1.9688034,0.5756435    l-3.5599976,6.5c-0.397644,0.7267551-0.1308441,1.638258,0.5959167,2.0358982    c0.2940063,0.1608658,0.6334152,0.2186356,0.9640808,0.1641006L74.1699982,32.7799988z"/><path d="M102.6800003,39.5099983l-3.1500015-3.8099976c-0.5708847-0.6378899-1.5507812-0.6922073-2.1886673-0.1213264    c-0.0426559,0.0381699-0.0831604,0.0786743-0.1213303,0.1213264l-3.1500015,3.8100014    c-2.2055969,2.7938232-2.2055969,6.7361755,0,9.5299988c1.0384598,1.3212204,2.6196289,2.1007729,4.3000031,2.1199989l0,0    c1.6803741-0.0192261,3.2615433-0.7987785,4.3000031-2.1199989    C104.87854,46.2484932,104.8826752,42.3061333,102.6800003,39.5099983z M100.3700027,47.1299973    c-0.1450195,0.1747055-0.3094025,0.3323822-0.4899979,0.4700012v-3.1099968c0-0.8284264-0.6715698-1.5-1.5-1.5    s-1.5,0.6715736-1.5,1.5v3.1099968c-0.1805954-0.137619-0.3449783-0.2952957-0.4899979-0.4700012    c-1.2784119-1.6886635-1.2784119-4.0213356,0-5.7099991l2-2.4099998l2,2.4099998    c1.2695618,1.6953773,1.2573013,4.0280647-0.0300064,5.7100029L100.3700027,47.1299973z"/></g></g></svg>